<svg width="281" height="286" viewBox="0 0 281 286" fill="none" xmlns="http://www.w3.org/2000/svg">
<g opacity="0.3">
<path d="M22.7507 221.089C27.9761 229.237 34.1017 236.961 41.1274 244.116C48.1531 251.271 55.7381 257.509 63.739 262.831L22.7507 221.089Z" fill="#DEE0E7"/>
<path d="M79.5282 271.899L13.8461 205.009C11.8596 200.804 10.0869 196.52 8.52788 192.175L92.1304 277.315C87.8637 275.728 83.6574 273.922 79.5282 271.899Z" fill="#DEE0E7"/>
<path d="M102.295 280.655C105.48 281.567 108.691 282.362 111.921 283.041L2.90592 172.021C3.57209 175.31 4.3528 178.58 5.24805 181.824L102.295 280.655Z" fill="#DEE0E7"/>
<path d="M1.44491 163.522L120.267 284.529C123 284.93 125.743 285.249 128.491 285.486L0.504334 155.146C0.737211 157.945 1.05073 160.738 1.44491 163.522Z" fill="#DEE0E7"/>
<path d="M0.0753257 147.698L135.805 285.923C138.248 286.005 140.693 286.021 143.137 285.973L0.0261783 140.23C-0.0208779 142.719 -0.00449547 145.209 0.0753257 147.698Z" fill="#DEE0E7"/>
<path d="M0.307916 133.506L149.74 285.686C151.971 285.536 154.199 285.332 156.422 285.074L0.909597 126.701C0.656016 128.965 0.455453 131.234 0.307916 133.506Z" fill="#DEE0E7"/>
<path d="M1.73431 120.529L162.482 284.234C164.544 283.901 166.6 283.522 168.649 283.096L2.85145 114.249C2.43302 116.336 2.06064 118.43 1.73431 120.529Z" fill="#DEE0E7"/>
<path d="M4.11914 108.529L174.266 281.805C176.186 281.321 178.099 280.796 180.002 280.228L5.66731 102.688C5.11017 104.626 4.59412 106.573 4.11914 108.529Z" fill="#DEE0E7"/>
<path d="M7.31332 97.353L185.24 278.552C187.037 277.937 188.825 277.285 190.601 276.594L9.23638 91.8935C8.55799 93.7026 7.91697 95.5228 7.31332 97.353Z" fill="#DEE0E7"/>
<path d="M11.2166 86.8989L195.506 274.577C197.192 273.845 198.867 273.079 200.53 272.277L13.4755 81.7816C12.688 83.4753 11.9351 85.1814 11.2166 86.8989Z" fill="#DEE0E7"/>
<path d="M15.759 77.0958L205.132 269.951C206.717 269.113 208.289 268.241 209.849 267.337L18.3259 72.2922C17.438 73.8801 16.5824 75.4816 15.759 77.0958Z" fill="#DEE0E7"/>
<path d="M20.8903 67.8924L214.169 264.726C215.659 263.787 217.136 262.818 218.598 261.818L23.7451 63.3821C22.7631 64.8712 21.8114 66.375 20.8903 67.8924Z" fill="#DEE0E7"/>
<path d="M26.5744 59.252L222.653 258.937C224.053 257.904 225.438 256.842 226.808 255.751L29.7028 55.0203C28.631 56.4156 27.5882 57.8264 26.5744 59.252Z" fill="#DEE0E7"/>
<path d="M32.7854 51.1483L230.611 252.612C231.924 251.489 233.221 250.337 234.503 249.157L36.1772 47.1848C35.0188 48.4897 33.8882 49.8111 32.7854 51.1483Z" fill="#DEE0E7"/>
<path d="M39.5052 43.5626L238.059 245.768C238.612 245.223 239.162 244.672 239.708 244.116C240.378 243.434 241.04 242.746 241.694 242.053L43.1537 39.8606C42.4733 40.5266 41.7978 41.201 41.1274 41.8837C40.5812 42.4399 40.0405 42.9996 39.5052 43.5626Z" fill="#DEE0E7"/>
<path d="M46.7232 36.4844L245.01 238.418C246.164 237.108 247.29 235.782 248.388 234.44L50.6287 33.044C49.3112 34.1624 48.0091 35.3092 46.7232 36.4844Z" fill="#DEE0E7"/>
<path d="M54.4439 29.918L251.457 230.555C252.525 229.155 253.563 227.739 254.572 226.309L58.6132 26.7463C57.2087 27.774 55.8187 28.8312 54.4439 29.918Z" fill="#DEE0E7"/>
<path d="M62.6822 23.8789L257.388 222.165C258.365 220.671 259.312 219.162 260.228 217.64L67.1259 20.9864C65.6309 21.9195 64.1494 22.8836 62.6822 23.8789Z" fill="#DEE0E7"/>
<path d="M71.4605 18.3894L262.778 213.225C263.661 211.632 264.511 210.025 265.329 208.406L76.1929 15.7912C74.6028 16.6243 73.025 17.4904 71.4605 18.3894Z" fill="#DEE0E7"/>
<path d="M80.8094 13.4812L267.597 203.704C268.379 202.005 269.127 200.293 269.839 198.57L85.8511 11.198C84.159 11.9238 82.4781 12.6849 80.8094 13.4812Z" fill="#DEE0E7"/>
<path d="M90.7722 9.19825L271.803 193.558C272.475 191.743 273.11 189.917 273.708 188.08L96.1514 7.25877C94.3482 7.86703 92.5547 8.51353 90.7722 9.19825Z" fill="#DEE0E7"/>
<path d="M101.409 5.60141L275.335 182.726C275.885 180.781 276.394 178.827 276.862 176.864L107.165 4.04612C105.238 4.52249 103.319 5.04093 101.409 5.60141Z" fill="#DEE0E7"/>
<path d="M112.804 2.77688L278.108 171.122C278.519 169.027 278.883 166.925 279.201 164.817L118.995 1.66426C116.925 1.98792 114.861 2.3588 112.804 2.77688Z" fill="#DEE0E7"/>
<path d="M125.081 0.850402L280 158.619C280.244 156.345 280.435 154.065 280.572 151.783L131.793 0.26834C129.552 0.407905 127.314 0.601936 125.081 0.850402Z" fill="#DEE0E7"/>
<path d="M138.428 0.0142634L280.821 145.026C280.856 142.523 280.826 140.02 280.733 137.518L145.8 0.104455C143.344 0.00909057 140.886 -0.02098 138.428 0.0142634Z" fill="#DEE0E7"/>
<path d="M153.158 0.586241L280.26 130.025C280.009 127.207 279.676 124.394 279.262 121.592L161.439 1.60218C158.688 1.18016 155.926 0.84152 153.158 0.586241Z" fill="#DEE0E7"/>
<path d="M169.854 3.16011L277.732 113.022C277.036 109.698 276.222 106.395 275.291 103.118L179.579 5.64627C176.362 4.69814 173.118 3.86943 169.854 3.16011Z" fill="#DEE0E7"/>
<path d="M189.884 9.12976L271.87 92.6235C270.232 88.1811 268.369 83.805 266.281 79.5135L202.758 14.8221C198.544 12.6959 194.247 10.7984 189.884 9.12976Z" fill="#DEE0E7"/>
<path d="M219.325 24.6825L256.598 62.6418C251.708 55.3267 246.078 48.3711 239.708 41.8837C233.338 35.3964 226.508 29.6626 219.325 24.6825Z" fill="#DEE0E7"/>
</g>
</svg>
