<svg width="32" height="24" viewBox="0 0 32 24" fill="none" xmlns="http://www.w3.org/2000/svg">
<path id="Vector" d="M3.01172 14.7139H11.2363C11.4438 14.7139 11.6266 14.8418 11.7012 15.0293L11.7266 15.1123L13.2373 22.3984C13.3017 22.7087 13.0649 22.9998 12.748 23H1.50098C1.22371 23 1.00768 22.7772 1.00098 22.5137L1.01074 22.3984L2.52246 15.1123C2.57079 14.8805 2.77489 14.7139 3.01172 14.7139ZM20.0781 14.7139H28.3037C28.511 14.714 28.6931 14.842 28.7676 15.0293L28.793 15.1123L30.3037 22.3984C30.3681 22.7088 30.1314 23 29.8145 23H18.5674C18.2901 23 18.0741 22.7772 18.0674 22.5137L18.0771 22.3984L19.5889 15.1123C19.6372 14.8805 19.8413 14.7139 20.0781 14.7139ZM11.5449 1H19.7705C19.9776 1.00018 20.1597 1.12742 20.2344 1.31445L20.2598 1.39844L21.7705 8.68457C21.8346 8.99479 21.5981 9.28608 21.2812 9.28613H10.0342C9.75672 9.28613 9.54059 9.06261 9.53418 8.79883L9.54395 8.68457L11.0557 1.39844C11.1038 1.16644 11.308 1.00005 11.5449 1Z" stroke="#A0A0A0" stroke-width="2"/>
</svg>
